<svg fill="none" height="1600" viewBox="0 0 1200 1600" width="1200" xmlns="http://www.w3.org/2000/svg" xmlns:xlink="http://www.w3.org/1999/xlink"><filter id="a" color-interpolation-filters="sRGB" filterUnits="userSpaceOnUse" height="1210.67" width="560.66699" x="519.66699" y="396"><feFlood flood-opacity="0" result="BackgroundImageFix"/><feColorMatrix in="SourceAlpha" type="matrix" values="0 0 0 0 0 0 0 0 0 0 0 0 0 0 0 0 0 0 127 0"/><feOffset dy=".253333"/><feGaussianBlur stdDeviation=".253333"/><feColorMatrix type="matrix" values="0 0 0 0 0 0 0 0 0 0 0 0 0 0 0 0 0 0 0.2 0"/><feBlend in2="BackgroundImageFix" mode="normal" result="effect1_dropShadow"/><feColorMatrix in="SourceAlpha" type="matrix" values="0 0 0 0 0 0 0 0 0 0 0 0 0 0 0 0 0 0 127 0"/><feOffset dy="1.33333"/><feGaussianBlur stdDeviation="2.66667"/><feColorMatrix type="matrix" values="0 0 0 0 0 0 0 0 0 0 0 0 0 0 0 0 0 0 0.18 0"/><feBlend in2="effect1_dropShadow" mode="normal" result="effect2_dropShadow"/><feBlend in="SourceGraphic" in2="effect2_dropShadow" mode="normal" result="shape"/></filter><linearGradient id="b" gradientUnits="userSpaceOnUse" x1="758.33301" x2="1447.8199" y1="-.000015" y2="1507.15"><stop offset="0" stop-color="#e6ad10"/><stop offset="1" stop-color="#c87e0e"/></linearGradient><linearGradient id="c" gradientUnits="userSpaceOnUse" x1="524.95502" x2="1105.79" y1="400" y2="1561.67"><stop offset="0" stop-color="#f6d751"/><stop offset="1" stop-color="#e6ad10"/></linearGradient><linearGradient id="d" gradientUnits="userSpaceOnUse" x1="199.955" x2="519.784" y1="800" y2="1581.6801"><stop offset="0" stop-color="#f9e589"/><stop offset="1" stop-color="#f6d751"/></linearGradient><mask id="e" height="1600" maskUnits="userSpaceOnUse" width="1200" x="200" y="0"><path d="m1333.25 0c36.86 0 66.75 29.8849 66.75 66.75v1466.5c0 36.86-29.89 66.75-66.75 66.75h-1066.583c-36.819 0-66.667-29.85-66.667-66.67v-666.663c0-36.819 29.848-66.667 66.667-66.667h258.333v-333.333c0-36.819 29.848-66.667 66.667-66.667h258.333v-333.25c0-36.865 29.885-66.75 66.75-66.75z" fill="#fff"/></mask><g mask="url(#e)" transform="translate(-200)"><path d="m1400 66.75v1466.5c0 36.86-29.89 66.75-66.75 66.75h-416.5c-36.865 0-66.75-29.89-66.75-66.75v-1466.5c0-36.865 29.885-66.75 66.75-66.75h416.5c36.87 0 66.75 29.8849 66.75 66.75z" fill="url(#b)"/><g filter="url(#a)"><path d="m1075 466.667v1133.333h-550v-1133.333c0-36.819 29.848-66.667 66.667-66.667h416.663c36.82 0 66.67 29.848 66.67 66.667z" fill="url(#c)"/></g><path d="m200 866.667v666.663c0 36.82 29.848 66.67 66.667 66.67h483.333v-733.333c0-36.819-29.848-66.667-66.667-66.667h-416.666c-36.819 0-66.667 29.848-66.667 66.667z" fill="url(#d)"/></g></svg>